<?xml version="1.0" encoding="UTF-8"?>
<svg xmlns="http://www.w3.org/2000/svg" xmlns:xlink="http://www.w3.org/1999/xlink" viewBox="0 0 16 16" width="16px" height="16px">
<g id="surface23348821">
<path style=" stroke:none;fill-rule:nonzero;fill:rgb(83.92157%,89.803922%,89.803922%);fill-opacity:1;" d="M 1.4375 3.328125 C 1.4375 4.996094 1.621094 4.683594 1.621094 6.183594 C 1.621094 7.4375 1.582031 8.101562 1.53125 8.996094 C 1.488281 9.738281 1.382812 10.46875 1.433594 11.210938 C 1.5 12.226562 1.328125 13.105469 1.886719 13.75 C 2.503906 14.460938 3.539062 14.664062 4.261719 14.699219 C 4.984375 14.734375 6.453125 14.761719 7.175781 14.683594 C 9.042969 14.480469 10.226562 14.566406 12.105469 14.640625 C 12.792969 14.667969 13.792969 14.832031 14.40625 14.257812 C 14.886719 13.804688 14.957031 13.253906 14.941406 12.128906 C 14.921875 10.648438 14.898438 9.507812 14.90625 8.023438 C 14.910156 7.457031 14.9375 6.839844 14.941406 6.273438 C 14.941406 5.816406 14.863281 4.851562 14.855469 4.394531 C 14.851562 3.96875 14.878906 3.285156 14.832031 2.851562 C 14.632812 1.050781 11.941406 1.148438 10.488281 1.214844 C 8.816406 1.292969 9.269531 1.328125 7.601562 1.328125 C 7.140625 1.328125 6.367188 1.222656 5.480469 1.21875 C 4.3125 1.210938 3.796875 1.21875 3.101562 1.328125 C 2.101562 1.492188 1.371094 2.027344 1.4375 3.328125 "/>
<path style=" stroke:none;fill-rule:nonzero;fill:rgb(93.725491%,27.843139%,32.941177%);fill-opacity:1;" d="M 6.5 7.636719 C 6.441406 8.289062 6.578125 11.347656 6.449219 11.765625 C 6.371094 12.023438 6.203125 12.613281 5.597656 12.941406 C 5.035156 13.25 4.257812 13.113281 4.113281 13.074219 C 3.796875 12.992188 3.242188 12.496094 3.242188 11.910156 C 3.242188 11.46875 3.480469 10.949219 3.710938 10.742188 C 4.113281 10.382812 4.761719 10.511719 5.234375 10.25 C 5.691406 9.992188 5.808594 9.46875 5.792969 8.941406 C 5.757812 7.328125 5.847656 6.78125 5.878906 5.222656 C 5.882812 4.96875 5.960938 4.25 6.0625 4.015625 C 6.207031 3.683594 6.597656 3.546875 6.949219 3.453125 C 8.402344 3.054688 9.589844 2.976562 11.085938 2.800781 C 11.3125 2.773438 11.574219 2.761719 11.738281 2.917969 C 11.855469 3.03125 11.890625 3.207031 11.910156 3.371094 C 12.039062 4.46875 11.992188 5.46875 11.9375 6.570312 C 11.894531 7.34375 11.980469 8.476562 11.949219 9.25 C 11.929688 9.613281 11.886719 9.976562 11.820312 10.332031 C 11.671875 11.101562 11.460938 11.675781 10.832031 11.96875 C 10.351562 12.195312 9.304688 12.261719 8.925781 11.890625 C 8.542969 11.519531 8.472656 11.101562 8.550781 10.574219 C 8.585938 10.320312 8.847656 9.875 9.066406 9.738281 C 9.703125 9.347656 10.347656 9.382812 10.820312 9.066406 C 11.109375 8.875 11.160156 8.558594 11.160156 8.210938 C 11.15625 7.714844 11.199219 7.167969 11.175781 6.824219 C 11.140625 6.367188 11.105469 5.910156 11.074219 5.449219 C 11.070312 5.394531 11.0625 5.332031 11.027344 5.289062 C 10.984375 5.242188 10.914062 5.234375 10.851562 5.226562 C 9.855469 5.121094 9.5 4.96875 8.167969 5.300781 C 7.855469 5.378906 7.046875 5.730469 6.832031 5.96875 C 6.488281 6.351562 6.546875 7.121094 6.5 7.636719 "/>
<path style=" stroke:none;fill-rule:nonzero;fill:rgb(45.490196%,80.000001%,81.176472%);fill-opacity:1;" d="M 11.527344 6.824219 C 11.410156 6.9375 11.175781 6.824219 11.175781 6.824219 C 11.199219 7.167969 11.15625 7.714844 11.160156 8.210938 C 11.160156 8.558594 11.109375 8.875 10.820312 9.066406 C 10.347656 9.382812 9.703125 9.347656 9.066406 9.738281 C 8.847656 9.875 8.585938 10.320312 8.550781 10.574219 C 8.472656 11.101562 8.542969 11.519531 8.925781 11.890625 C 9.304688 12.261719 10.351562 12.195312 10.832031 11.96875 C 11.460938 11.675781 11.671875 11.101562 11.820312 10.332031 C 11.886719 9.976562 11.929688 9.613281 11.949219 9.25 C 11.980469 8.476562 11.894531 7.34375 11.9375 6.570312 C 11.9375 6.570312 11.644531 6.710938 11.527344 6.824219 Z M 11.527344 6.824219 "/>
<path style=" stroke:none;fill-rule:nonzero;fill:rgb(54.11765%,27.058825%,50.588238%);fill-opacity:1;" d="M 5.597656 12.941406 C 6.203125 12.613281 6.371094 12.023438 6.449219 11.765625 C 6.578125 11.347656 6.441406 8.289062 6.5 7.636719 C 6.503906 7.597656 6.503906 7.554688 6.507812 7.515625 C 6.316406 7.273438 5.796875 7.460938 5.796875 7.460938 C 5.785156 7.875 5.78125 8.332031 5.792969 8.941406 C 5.808594 9.46875 5.691406 9.992188 5.234375 10.25 C 4.761719 10.515625 4.113281 10.382812 3.710938 10.742188 C 3.480469 10.949219 3.242188 11.46875 3.242188 11.910156 C 3.242188 12.496094 3.796875 12.996094 4.113281 13.074219 C 4.257812 13.109375 5.035156 13.25 5.597656 12.941406 Z M 5.597656 12.941406 "/>
<path style=" stroke:none;fill-rule:nonzero;fill:rgb(0.392157%,0.392157%,0.392157%);fill-opacity:1;" d="M 5.789062 14.902344 C 5.230469 14.902344 4.660156 14.886719 4.253906 14.867188 C 3.621094 14.835938 2.457031 14.664062 1.757812 13.859375 C 1.296875 13.328125 1.292969 12.648438 1.285156 11.933594 C 1.285156 11.707031 1.28125 11.46875 1.265625 11.222656 C 1.230469 10.683594 1.273438 10.144531 1.316406 9.621094 C 1.332031 9.410156 1.351562 9.199219 1.363281 8.988281 L 1.371094 8.863281 C 1.417969 8.03125 1.457031 7.371094 1.453125 6.183594 C 1.453125 5.46875 1.410156 5.179688 1.367188 4.871094 C 1.320312 4.539062 1.269531 4.199219 1.269531 3.332031 C 1.210938 2.097656 1.816406 1.367188 3.078125 1.164062 C 3.796875 1.046875 4.335938 1.046875 5.484375 1.050781 C 5.996094 1.054688 6.480469 1.089844 6.867188 1.121094 C 7.160156 1.144531 7.410156 1.164062 7.601562 1.164062 C 8.648438 1.164062 8.859375 1.148438 9.28125 1.117188 C 9.53125 1.101562 9.863281 1.078125 10.480469 1.050781 C 11.878906 0.984375 14.78125 0.851562 14.996094 2.832031 C 15.03125 3.140625 15.027344 3.5625 15.023438 3.9375 C 15.023438 4.101562 15.019531 4.257812 15.023438 4.390625 C 15.027344 4.59375 15.042969 4.898438 15.0625 5.214844 C 15.085938 5.609375 15.109375 6.015625 15.105469 6.273438 C 15.105469 6.558594 15.097656 6.855469 15.089844 7.148438 C 15.082031 7.445312 15.074219 7.742188 15.070312 8.023438 C 15.066406 9.160156 15.078125 10.074219 15.09375 11.136719 L 15.109375 12.128906 C 15.125 13.289062 15.042969 13.886719 14.519531 14.378906 C 13.9375 14.921875 13.082031 14.867188 12.394531 14.824219 C 12.292969 14.816406 12.191406 14.8125 12.097656 14.808594 L 11.523438 14.78125 C 9.972656 14.71875 8.851562 14.667969 7.191406 14.851562 C 6.847656 14.886719 6.324219 14.902344 5.789062 14.902344 Z M 4.984375 1.382812 C 4.179688 1.382812 3.714844 1.398438 3.128906 1.492188 C 2.050781 1.667969 1.550781 2.265625 1.601562 3.320312 L 1.601562 3.328125 C 1.601562 4.171875 1.652344 4.503906 1.695312 4.820312 C 1.742188 5.128906 1.785156 5.441406 1.785156 6.183594 C 1.789062 7.382812 1.75 8.042969 1.703125 8.882812 L 1.695312 9.003906 C 1.683594 9.21875 1.664062 9.433594 1.648438 9.648438 C 1.605469 10.179688 1.5625 10.683594 1.597656 11.199219 C 1.613281 11.453125 1.617188 11.695312 1.617188 11.929688 C 1.625 12.613281 1.628906 13.199219 2.011719 13.640625 C 2.628906 14.351562 3.691406 14.503906 4.269531 14.53125 C 5.054688 14.570312 6.46875 14.59375 7.15625 14.519531 C 8.839844 14.335938 9.96875 14.382812 11.535156 14.449219 L 12.113281 14.472656 C 12.207031 14.476562 12.308594 14.484375 12.414062 14.492188 C 13.039062 14.53125 13.816406 14.582031 14.289062 14.132812 C 14.722656 13.726562 14.789062 13.210938 14.773438 12.132812 L 14.761719 11.140625 C 14.746094 10.078125 14.730469 9.160156 14.738281 8.023438 C 14.738281 7.738281 14.746094 7.4375 14.753906 7.140625 C 14.761719 6.847656 14.769531 6.554688 14.773438 6.273438 C 14.773438 6.027344 14.75 5.625 14.730469 5.234375 C 14.710938 4.914062 14.691406 4.601562 14.6875 4.394531 C 14.6875 4.261719 14.6875 4.101562 14.691406 3.933594 C 14.691406 3.570312 14.695312 3.15625 14.664062 2.867188 C 14.480469 1.199219 11.789062 1.324219 10.496094 1.382812 C 9.882812 1.410156 9.554688 1.433594 9.304688 1.449219 C 8.875 1.480469 8.660156 1.496094 7.601562 1.496094 C 7.398438 1.496094 7.140625 1.476562 6.839844 1.453125 C 6.4375 1.421875 5.980469 1.386719 5.480469 1.382812 C 5.300781 1.382812 5.136719 1.382812 4.984375 1.382812 Z M 4.984375 1.382812 "/>
<path style=" stroke:none;fill-rule:nonzero;fill:rgb(0.392157%,0.392157%,0.392157%);fill-opacity:1;" d="M 4.710938 13.304688 C 4.351562 13.304688 4.078125 13.238281 4.074219 13.234375 C 3.667969 13.132812 3.078125 12.566406 3.078125 11.910156 C 3.078125 11.453125 3.3125 10.875 3.601562 10.617188 C 3.859375 10.386719 4.191406 10.332031 4.511719 10.28125 C 4.746094 10.242188 4.96875 10.207031 5.152344 10.105469 C 5.484375 9.914062 5.640625 9.535156 5.628906 8.945312 C 5.605469 7.925781 5.632812 7.328125 5.660156 6.636719 C 5.679688 6.230469 5.699219 5.796875 5.710938 5.21875 C 5.71875 4.96875 5.792969 4.214844 5.910156 3.949219 C 6.078125 3.5625 6.488281 3.40625 6.90625 3.289062 C 8.109375 2.964844 9.117188 2.851562 10.285156 2.722656 C 10.539062 2.695312 10.796875 2.667969 11.066406 2.636719 C 11.351562 2.601562 11.644531 2.597656 11.851562 2.796875 C 12.011719 2.949219 12.054688 3.164062 12.078125 3.351562 C 12.199219 4.421875 12.164062 5.363281 12.101562 6.578125 C 12.082031 6.96875 12.09375 7.460938 12.105469 7.9375 C 12.117188 8.398438 12.132812 8.875 12.113281 9.257812 C 12.097656 9.628906 12.054688 10 11.984375 10.363281 C 11.824219 11.1875 11.578125 11.804688 10.902344 12.121094 C 10.363281 12.371094 9.246094 12.4375 8.808594 12.007812 C 8.425781 11.632812 8.292969 11.183594 8.382812 10.550781 C 8.425781 10.261719 8.707031 9.765625 8.976562 9.597656 C 9.332031 9.378906 9.6875 9.285156 10 9.203125 C 10.28125 9.128906 10.523438 9.0625 10.730469 8.925781 C 10.917969 8.800781 10.996094 8.59375 10.992188 8.214844 C 10.992188 8.003906 10.996094 7.785156 11.003906 7.578125 C 11.011719 7.292969 11.023438 7.027344 11.007812 6.835938 L 10.90625 5.460938 C 10.90625 5.449219 10.902344 5.40625 10.898438 5.398438 C 10.898438 5.402344 10.882812 5.394531 10.835938 5.390625 C 10.660156 5.371094 10.507812 5.351562 10.363281 5.335938 C 9.6875 5.246094 9.277344 5.195312 8.207031 5.464844 C 7.886719 5.542969 7.132812 5.886719 6.957031 6.082031 C 6.726562 6.335938 6.707031 6.835938 6.6875 7.277344 C 6.679688 7.410156 6.675781 7.535156 6.664062 7.648438 C 6.644531 7.910156 6.652344 8.589844 6.660156 9.3125 C 6.679688 10.660156 6.6875 11.5625 6.609375 11.816406 C 6.519531 12.101562 6.328125 12.734375 5.675781 13.089844 C 5.367188 13.257812 5.011719 13.304688 4.710938 13.304688 Z M 11.324219 2.953125 C 11.253906 2.953125 11.179688 2.957031 11.105469 2.964844 C 10.835938 3 10.574219 3.027344 10.320312 3.054688 C 9.167969 3.183594 8.171875 3.292969 6.992188 3.613281 C 6.65625 3.703125 6.328125 3.824219 6.214844 4.082031 C 6.128906 4.28125 6.050781 4.960938 6.042969 5.226562 C 6.03125 5.804688 6.011719 6.246094 5.996094 6.652344 C 5.964844 7.335938 5.9375 7.929688 5.960938 8.9375 C 5.976562 9.652344 5.761719 10.144531 5.3125 10.394531 C 5.078125 10.527344 4.816406 10.570312 4.5625 10.609375 C 4.277344 10.65625 4.007812 10.699219 3.824219 10.867188 C 3.628906 11.039062 3.410156 11.511719 3.410156 11.910156 C 3.410156 12.40625 3.898438 12.847656 4.152344 12.914062 C 4.359375 12.964844 5.046875 13.054688 5.515625 12.796875 C 6.046875 12.507812 6.207031 11.984375 6.285156 11.734375 C 6.359375 11.496094 6.339844 10.234375 6.328125 9.316406 C 6.316406 8.554688 6.308594 7.898438 6.332031 7.621094 C 6.34375 7.511719 6.347656 7.386719 6.355469 7.261719 C 6.375 6.765625 6.398438 6.203125 6.710938 5.855469 C 6.964844 5.570312 7.832031 5.214844 8.125 5.140625 C 9.257812 4.855469 9.714844 4.917969 10.40625 5.003906 C 10.546875 5.023438 10.699219 5.042969 10.871094 5.058594 C 10.9375 5.066406 11.0625 5.082031 11.152344 5.179688 C 11.226562 5.265625 11.234375 5.375 11.238281 5.4375 L 11.339844 6.8125 C 11.355469 7.019531 11.347656 7.296875 11.339844 7.585938 C 11.332031 7.792969 11.324219 8.007812 11.324219 8.210938 C 11.328125 8.542969 11.28125 8.957031 10.914062 9.203125 C 10.664062 9.371094 10.382812 9.445312 10.085938 9.523438 C 9.78125 9.605469 9.464844 9.6875 9.152344 9.882812 C 8.988281 9.984375 8.746094 10.378906 8.714844 10.597656 C 8.636719 11.128906 8.734375 11.46875 9.039062 11.769531 C 9.355469 12.078125 10.335938 12.015625 10.761719 11.816406 C 11.3125 11.558594 11.511719 11.046875 11.65625 10.300781 C 11.722656 9.953125 11.765625 9.597656 11.78125 9.242188 C 11.796875 8.871094 11.785156 8.402344 11.773438 7.945312 C 11.761719 7.464844 11.75 6.964844 11.769531 6.5625 C 11.832031 5.363281 11.867188 4.433594 11.746094 3.390625 C 11.730469 3.261719 11.703125 3.117188 11.621094 3.039062 C 11.554688 2.972656 11.445312 2.953125 11.324219 2.953125 Z M 11.324219 2.953125 "/>
<path style=" stroke:none;fill-rule:nonzero;fill:rgb(0.392157%,0.392157%,0.392157%);fill-opacity:1;" d="M 6.453125 7.65625 C 6.402344 7.65625 6.355469 7.632812 6.320312 7.59375 C 6.214844 7.457031 5.960938 7.558594 5.957031 7.5625 C 5.875 7.597656 5.777344 7.558594 5.738281 7.472656 C 5.703125 7.390625 5.742188 7.292969 5.824219 7.253906 C 6.007812 7.175781 6.371094 7.113281 6.582031 7.386719 C 6.640625 7.460938 6.628906 7.5625 6.554688 7.621094 C 6.523438 7.644531 6.488281 7.65625 6.453125 7.65625 Z M 6.453125 7.65625 "/>
<path style=" stroke:none;fill-rule:nonzero;fill:rgb(0.392157%,0.392157%,0.392157%);fill-opacity:1;" d="M 11.386719 7.039062 C 11.246094 7.039062 11.125 6.984375 11.101562 6.972656 C 11.019531 6.933594 10.984375 6.835938 11.023438 6.75 C 11.0625 6.667969 11.164062 6.632812 11.246094 6.671875 C 11.308594 6.703125 11.394531 6.714844 11.414062 6.703125 C 11.542969 6.574219 11.832031 6.4375 11.863281 6.421875 C 11.949219 6.382812 12.046875 6.417969 12.085938 6.5 C 12.125 6.582031 12.089844 6.683594 12.007812 6.722656 C 11.90625 6.769531 11.714844 6.875 11.644531 6.941406 C 11.570312 7.015625 11.472656 7.039062 11.386719 7.039062 Z M 11.386719 7.039062 "/>
</g>
</svg>
